<svg width="287" height="55" viewBox="0 0 287 55" fill="none" xmlns="http://www.w3.org/2000/svg">
<g filter="url(#filter0_d)">
<rect x="4" width="279" height="47" rx="19" fill="#85DEEA"/>
<path d="M63.9131 28.0269C63.7969 29.6333 63.2021 30.8979 62.1289 31.8208C61.0625 32.7437 59.6543 33.2051 57.9043 33.2051C55.9902 33.2051 54.4829 32.5625 53.3823 31.2773C52.2886 29.9854 51.7417 28.2148 51.7417 25.9658V25.0532C51.7417 23.6177 51.9946 22.353 52.5005 21.2593C53.0063 20.1655 53.7275 19.3281 54.6641 18.7471C55.6074 18.1592 56.7012 17.8652 57.9453 17.8652C59.668 17.8652 61.0557 18.3267 62.1084 19.2495C63.1611 20.1724 63.7695 21.4678 63.9336 23.1357H60.8574C60.7822 22.1719 60.5122 21.4746 60.0474 21.0439C59.5894 20.6064 58.8887 20.3877 57.9453 20.3877C56.9199 20.3877 56.1509 20.7568 55.6382 21.4951C55.1323 22.2266 54.8726 23.3647 54.8589 24.9097V26.0376C54.8589 27.6509 55.1016 28.8301 55.5869 29.5752C56.0791 30.3203 56.8516 30.6929 57.9043 30.6929C58.8545 30.6929 59.562 30.4775 60.0269 30.0469C60.4985 29.6094 60.7686 28.936 60.8369 28.0269H63.9131ZM65.2769 27.3501C65.2769 26.2495 65.4888 25.2686 65.9126 24.4072C66.3364 23.5459 66.9448 22.8794 67.7378 22.4077C68.5376 21.936 69.4639 21.7002 70.5166 21.7002C72.0137 21.7002 73.2339 22.1582 74.1772 23.0742C75.1274 23.9902 75.6572 25.2344 75.7666 26.8066L75.7871 27.5654C75.7871 29.2676 75.312 30.6348 74.3618 31.667C73.4116 32.6924 72.1367 33.2051 70.5371 33.2051C68.9375 33.2051 67.6592 32.6924 66.7021 31.667C65.752 30.6416 65.2769 29.2471 65.2769 27.4834V27.3501ZM68.2402 27.5654C68.2402 28.6182 68.4385 29.4248 68.835 29.9854C69.2314 30.5391 69.7988 30.8159 70.5371 30.8159C71.2549 30.8159 71.8154 30.5425 72.2188 29.9956C72.6221 29.4419 72.8237 28.5601 72.8237 27.3501C72.8237 26.3179 72.6221 25.5181 72.2188 24.9507C71.8154 24.3833 71.248 24.0996 70.5166 24.0996C69.792 24.0996 69.2314 24.3833 68.835 24.9507C68.4385 25.5112 68.2402 26.3828 68.2402 27.5654ZM80.3398 21.9053L80.4321 23.187C81.2251 22.1958 82.2881 21.7002 83.6211 21.7002C84.7969 21.7002 85.6719 22.0454 86.2461 22.7358C86.8203 23.4263 87.1143 24.4585 87.1279 25.8325V33H84.1646V25.9043C84.1646 25.2754 84.0278 24.8208 83.7544 24.5405C83.481 24.2534 83.0264 24.1099 82.3906 24.1099C81.5566 24.1099 80.9312 24.4653 80.5142 25.1763V33H77.5508V21.9053H80.3398ZM92.1113 21.9053L92.2036 23.187C92.9966 22.1958 94.0596 21.7002 95.3926 21.7002C96.5684 21.7002 97.4434 22.0454 98.0176 22.7358C98.5918 23.4263 98.8857 24.4585 98.8994 25.8325V33H95.936V25.9043C95.936 25.2754 95.7993 24.8208 95.5259 24.5405C95.2524 24.2534 94.7979 24.1099 94.1621 24.1099C93.3281 24.1099 92.7026 24.4653 92.2856 25.1763V33H89.3223V21.9053H92.1113ZM106.262 33.2051C104.635 33.2051 103.309 32.7061 102.283 31.708C101.265 30.71 100.755 29.3804 100.755 27.7192V27.4321C100.755 26.3179 100.971 25.3232 101.401 24.4482C101.832 23.5664 102.44 22.8896 103.227 22.418C104.02 21.9395 104.922 21.7002 105.934 21.7002C107.451 21.7002 108.644 22.1787 109.512 23.1357C110.387 24.0928 110.825 25.4497 110.825 27.2065V28.4165H103.76C103.855 29.1411 104.143 29.7222 104.621 30.1597C105.106 30.5972 105.718 30.8159 106.457 30.8159C107.598 30.8159 108.49 30.4023 109.133 29.5752L110.589 31.2056C110.145 31.8345 109.543 32.3267 108.784 32.6821C108.025 33.0308 107.185 33.2051 106.262 33.2051ZM105.923 24.0996C105.335 24.0996 104.857 24.2979 104.488 24.6943C104.125 25.0908 103.893 25.6582 103.791 26.3965H107.913V26.1606C107.899 25.5044 107.721 24.9985 107.379 24.6431C107.038 24.2808 106.552 24.0996 105.923 24.0996ZM117.131 30.8159C117.678 30.8159 118.122 30.6655 118.464 30.3647C118.806 30.064 118.983 29.6641 118.997 29.165H121.776C121.769 29.917 121.564 30.6074 121.161 31.2363C120.757 31.8584 120.204 32.3438 119.5 32.6924C118.802 33.0342 118.03 33.2051 117.182 33.2051C115.596 33.2051 114.345 32.7026 113.429 31.6978C112.513 30.686 112.055 29.2915 112.055 27.5142V27.3193C112.055 25.6104 112.51 24.2466 113.419 23.228C114.328 22.2095 115.576 21.7002 117.162 21.7002C118.549 21.7002 119.66 22.0967 120.494 22.8896C121.335 23.6758 121.762 24.7251 121.776 26.0376H118.997C118.983 25.4634 118.806 24.9985 118.464 24.6431C118.122 24.2808 117.671 24.0996 117.11 24.0996C116.42 24.0996 115.897 24.3525 115.542 24.8584C115.193 25.3574 115.019 26.1709 115.019 27.2988V27.6064C115.019 28.748 115.193 29.5684 115.542 30.0674C115.89 30.5664 116.42 30.8159 117.131 30.8159ZM127.016 19.1777V21.9053H128.913V24.0791H127.016V29.6162C127.016 30.0264 127.094 30.3203 127.251 30.498C127.409 30.6758 127.709 30.7646 128.154 30.7646C128.482 30.7646 128.772 30.7407 129.025 30.6929V32.9385C128.444 33.1162 127.846 33.2051 127.231 33.2051C125.153 33.2051 124.093 32.1558 124.052 30.0571V24.0791H122.432V21.9053H124.052V19.1777H127.016ZM135.988 33V18.0703H141.217C143.029 18.0703 144.403 18.4189 145.339 19.1162C146.276 19.8066 146.744 20.8218 146.744 22.1616C146.744 22.8931 146.556 23.5391 146.18 24.0996C145.804 24.6533 145.281 25.0601 144.611 25.3198C145.377 25.5112 145.979 25.8975 146.416 26.4785C146.86 27.0596 147.083 27.7705 147.083 28.6113C147.083 30.0469 146.625 31.1338 145.708 31.8721C144.792 32.6104 143.487 32.9863 141.792 33H135.988ZM139.064 26.499V30.5288H141.699C142.424 30.5288 142.988 30.3579 143.391 30.0161C143.801 29.6675 144.006 29.189 144.006 28.5806C144.006 27.2134 143.299 26.5195 141.884 26.499H139.064ZM139.064 24.3252H141.34C142.892 24.2979 143.668 23.6792 143.668 22.4692C143.668 21.7925 143.47 21.3071 143.073 21.0132C142.684 20.7124 142.065 20.562 141.217 20.562H139.064V24.3252ZM152.333 33H149.359V17.25H152.333V33ZM161.428 31.8721C160.696 32.7607 159.685 33.2051 158.393 33.2051C157.203 33.2051 156.294 32.8633 155.665 32.1797C155.043 31.4961 154.725 30.4946 154.711 29.1753V21.9053H157.675V29.0728C157.675 30.228 158.201 30.8057 159.254 30.8057C160.259 30.8057 160.949 30.457 161.325 29.7598V21.9053H164.299V33H161.51L161.428 31.8721ZM171.641 33.2051C170.014 33.2051 168.688 32.7061 167.662 31.708C166.644 30.71 166.134 29.3804 166.134 27.7192V27.4321C166.134 26.3179 166.35 25.3232 166.78 24.4482C167.211 23.5664 167.819 22.8896 168.605 22.418C169.398 21.9395 170.301 21.7002 171.312 21.7002C172.83 21.7002 174.023 22.1787 174.891 23.1357C175.766 24.0928 176.204 25.4497 176.204 27.2065V28.4165H169.139C169.234 29.1411 169.521 29.7222 170 30.1597C170.485 30.5972 171.097 30.8159 171.835 30.8159C172.977 30.8159 173.869 30.4023 174.512 29.5752L175.968 31.2056C175.523 31.8345 174.922 32.3267 174.163 32.6821C173.404 33.0308 172.563 33.2051 171.641 33.2051ZM171.302 24.0996C170.714 24.0996 170.236 24.2979 169.867 24.6943C169.504 25.0908 169.272 25.6582 169.169 26.3965H173.292V26.1606C173.278 25.5044 173.1 24.9985 172.758 24.6431C172.417 24.2808 171.931 24.0996 171.302 24.0996ZM181.443 19.1777V21.9053H183.34V24.0791H181.443V29.6162C181.443 30.0264 181.522 30.3203 181.679 30.498C181.836 30.6758 182.137 30.7646 182.582 30.7646C182.91 30.7646 183.2 30.7407 183.453 30.6929V32.9385C182.872 33.1162 182.274 33.2051 181.659 33.2051C179.581 33.2051 178.521 32.1558 178.48 30.0571V24.0791H176.86V21.9053H178.48V19.1777H181.443ZM184.222 27.3501C184.222 26.2495 184.434 25.2686 184.858 24.4072C185.282 23.5459 185.89 22.8794 186.683 22.4077C187.483 21.936 188.409 21.7002 189.462 21.7002C190.959 21.7002 192.179 22.1582 193.123 23.0742C194.073 23.9902 194.603 25.2344 194.712 26.8066L194.732 27.5654C194.732 29.2676 194.257 30.6348 193.307 31.667C192.357 32.6924 191.082 33.2051 189.482 33.2051C187.883 33.2051 186.604 32.6924 185.647 31.667C184.697 30.6416 184.222 29.2471 184.222 27.4834V27.3501ZM187.186 27.5654C187.186 28.6182 187.384 29.4248 187.78 29.9854C188.177 30.5391 188.744 30.8159 189.482 30.8159C190.2 30.8159 190.761 30.5425 191.164 29.9956C191.567 29.4419 191.769 28.5601 191.769 27.3501C191.769 26.3179 191.567 25.5181 191.164 24.9507C190.761 24.3833 190.193 24.0996 189.462 24.0996C188.737 24.0996 188.177 24.3833 187.78 24.9507C187.384 25.5112 187.186 26.3828 187.186 27.5654ZM196.096 27.3501C196.096 26.2495 196.308 25.2686 196.732 24.4072C197.156 23.5459 197.764 22.8794 198.557 22.4077C199.357 21.936 200.283 21.7002 201.336 21.7002C202.833 21.7002 204.053 22.1582 204.997 23.0742C205.947 23.9902 206.477 25.2344 206.586 26.8066L206.606 27.5654C206.606 29.2676 206.131 30.6348 205.181 31.667C204.231 32.6924 202.956 33.2051 201.356 33.2051C199.757 33.2051 198.479 32.6924 197.521 31.667C196.571 30.6416 196.096 29.2471 196.096 27.4834V27.3501ZM199.06 27.5654C199.06 28.6182 199.258 29.4248 199.654 29.9854C200.051 30.5391 200.618 30.8159 201.356 30.8159C202.074 30.8159 202.635 30.5425 203.038 29.9956C203.441 29.4419 203.643 28.5601 203.643 27.3501C203.643 26.3179 203.441 25.5181 203.038 24.9507C202.635 24.3833 202.067 24.0996 201.336 24.0996C200.611 24.0996 200.051 24.3833 199.654 24.9507C199.258 25.5112 199.06 26.3828 199.06 27.5654ZM211.979 19.1777V21.9053H213.876V24.0791H211.979V29.6162C211.979 30.0264 212.058 30.3203 212.215 30.498C212.373 30.6758 212.673 30.7646 213.118 30.7646C213.446 30.7646 213.736 30.7407 213.989 30.6929V32.9385C213.408 33.1162 212.81 33.2051 212.195 33.2051C210.117 33.2051 209.057 32.1558 209.016 30.0571V24.0791H207.396V21.9053H209.016V19.1777H211.979ZM218.419 23.1152C219.205 22.1719 220.193 21.7002 221.382 21.7002C223.789 21.7002 225.009 23.0981 225.043 25.894V33H222.08V25.9761C222.08 25.3403 221.943 24.8721 221.669 24.5713C221.396 24.2637 220.941 24.1099 220.306 24.1099C219.438 24.1099 218.809 24.4448 218.419 25.1147V33H215.456V17.25H218.419V23.1152Z" fill="black"/>
</g>
<defs>
<filter id="filter0_d" x="0" y="0" width="287" height="55" filterUnits="userSpaceOnUse" color-interpolation-filters="sRGB">
<feFlood flood-opacity="0" result="BackgroundImageFix"/>
<feColorMatrix in="SourceAlpha" type="matrix" values="0 0 0 0 0 0 0 0 0 0 0 0 0 0 0 0 0 0 127 0"/>
<feOffset dy="4"/>
<feGaussianBlur stdDeviation="2"/>
<feColorMatrix type="matrix" values="0 0 0 0 0 0 0 0 0 0 0 0 0 0 0 0 0 0 0.25 0"/>
<feBlend mode="normal" in2="BackgroundImageFix" result="effect1_dropShadow"/>
<feBlend mode="normal" in="SourceGraphic" in2="effect1_dropShadow" result="shape"/>
</filter>
</defs>
</svg>
